<?xml version="1.0" encoding="UTF-8"?>
<svg xmlns="http://www.w3.org/2000/svg" viewBox="-21 32 884 884" width="256" height="256">
  <path d="M0,0 L16,0 L16,864 L0,864 L-3,836 L-8,811 L-14,791 L-24,766 L-34,746 L-47,725 L-59,709 L-68,699 L-75,697 L-90,695 L-106,690 L-118,684 L-128,674 L-135,664 L-141,653 L-161,644 L-171,638 L-183,627 L-189,617 L-193,605 L-196,590 L-207,582 L-216,574 L-225,562 L-229,552 L-231,539 L-231,519 L-241,509 L-249,497 L-253,486 L-254,481 L-254,461 L-250,445 L-252,439 L-260,424 L-264,408 L-264,399 L-262,387 L-255,368 L-254,365 L-259,348 L-261,340 L-262,323 L-260,311 L-255,298 L-249,287 L-240,276 L-239,274 L-239,252 L-237,238 L-232,222 L-224,211 L-215,201 L-202,189 L-199,185 L-195,165 L-190,153 L-184,142 L-175,132 L-167,125 L-153,117 L-143,111 L-139,106 L-135,98 L-130,86 L-121,73 L-112,65 L-96,56 L-83,51 L-68,46 L-60,39 L-51,27 L-40,16 L-26,7 L-11,2 Z " fill="#743ABD" transform="translate(376,44)"/>
  <path d="M0,0 L4,0 L6,9 L10,14 L21,23 L31,32 L40,45 L45,57 L47,66 L48,98 L60,116 L67,131 L70,141 L71,157 L68,174 L64,186 L65,195 L71,208 L73,216 L74,229 L70,245 L62,261 L60,265 L61,271 L65,287 L65,305 L61,318 L54,330 L45,340 L42,343 L42,368 L39,380 L32,393 L27,399 L18,406 L15,405 L7,387 L-4,366 L-20,342 L-30,329 L-42,315 L-64,293 L-75,284 L-91,272 L-107,262 L-125,252 L-145,243 L-165,236 L-187,230 L-209,226 L-207,200 L-202,175 L-196,155 L-188,135 L-175,110 L-164,94 L-156,84 L-144,70 L-135,61 L-124,52 L-113,43 L-96,32 L-78,22 L-59,14 L-41,8 L-20,3 Z " fill="#743ABD" transform="translate(656,220)"/>
  <path d="M0,0 L11,1 L33,7 L53,15 L74,26 L86,34 L98,43 L111,54 L131,74 L142,88 L152,102 L163,121 L173,142 L181,164 L185,179 L184,183 L162,193 L160,193 L158,198 L151,210 L142,220 L134,227 L112,234 L89,238 L78,249 L64,268 L55,283 L46,299 L36,322 L27,349 L22,372 L18,404 L0,404 Z " fill="#743ABD" transform="translate(449,502)"/>
  <path d="M0,0 L17,0 L32,3 L45,8 L58,17 L70,29 L79,42 L85,46 L104,53 L123,63 L133,71 L144,85 L156,110 L164,116 L176,123 L178,126 L160,131 L140,137 L118,146 L97,156 L80,166 L64,177 L51,187 L36,200 L18,218 L9,229 L1,239 L0,239 Z " fill="#743ABD" transform="translate(449,40)"/>
</svg>
