<?xml version="1.0" encoding="UTF-8"?>
<!-- Generator: visioncortex VTracer 0.6.12 -->
<svg version="1.1" xmlns="http://www.w3.org/2000/svg" width="2800" height="969">
<path d="M0,0 L115,0 L116,303 L129,288 L138,277 L151,262 L160,251 L173,236 L182,225 L195,210 L204,199 L217,184 L226,173 L239,158 L248,147 L260,133 L271,120 L282,107 L293,94 L304,81 L315,68 L326,55 L337,42 L348,29 L359,16 L370,3 L372,0 L516,0 L514,4 L505,15 L493,29 L484,40 L472,54 L461,67 L452,78 L440,92 L429,105 L420,116 L408,130 L397,143 L388,154 L376,168 L367,179 L355,193 L344,206 L335,217 L323,231 L312,244 L303,255 L291,269 L282,280 L270,294 L259,307 L250,318 L238,332 L227,345 L225,350 L234,361 L246,375 L257,388 L268,401 L279,414 L288,425 L301,440 L310,451 L323,466 L332,477 L344,491 L355,504 L366,517 L377,530 L388,543 L397,554 L410,569 L419,580 L432,595 L441,606 L453,620 L464,633 L475,646 L486,659 L497,672 L506,683 L516,695 L516,697 L373,697 L361,684 L352,673 L339,658 L330,647 L317,632 L306,619 L294,605 L285,594 L272,579 L260,565 L251,554 L238,539 L227,526 L215,512 L206,501 L193,486 L181,472 L172,461 L159,446 L147,432 L138,421 L125,406 L116,395 L115,697 L0,697 Z " fill="#000000" transform="translate(944,126)"/>
<path d="M0,0 L16,0 L16,864 L0,864 L-3,836 L-8,811 L-14,791 L-24,766 L-34,746 L-47,725 L-59,709 L-68,699 L-75,697 L-90,695 L-106,690 L-118,684 L-128,674 L-135,664 L-141,653 L-161,644 L-171,638 L-183,627 L-189,617 L-193,605 L-196,590 L-207,582 L-216,574 L-225,562 L-229,552 L-231,539 L-231,519 L-241,509 L-249,497 L-253,486 L-254,481 L-254,461 L-250,445 L-252,439 L-260,424 L-264,408 L-264,399 L-262,387 L-255,368 L-254,365 L-259,348 L-261,340 L-262,323 L-260,311 L-255,298 L-249,287 L-240,276 L-239,274 L-239,252 L-237,238 L-232,222 L-224,211 L-215,201 L-202,189 L-199,185 L-195,165 L-190,153 L-184,142 L-175,132 L-167,125 L-153,117 L-143,111 L-139,106 L-135,98 L-130,86 L-121,73 L-112,65 L-96,56 L-83,51 L-68,46 L-60,39 L-51,27 L-40,16 L-26,7 L-11,2 Z " fill="#743ABD" transform="translate(376,44)"/>
<path d="M0,0 L36,0 L56,3 L78,9 L102,19 L121,30 L134,40 L144,49 L152,57 L162,70 L163,11 L242,11 L271,12 L271,476 L163,476 L162,417 L154,428 L145,438 L136,447 L121,458 L106,467 L89,475 L71,481 L49,486 L32,488 L6,488 L-15,486 L-41,481 L-64,474 L-87,464 L-107,453 L-121,443 L-131,435 L-141,426 L-146,422 L-153,414 L-163,403 L-176,385 L-185,370 L-193,355 L-203,330 L-209,310 L-214,286 L-216,271 L-217,257 L-217,230 L-215,208 L-210,182 L-204,161 L-196,140 L-188,124 L-178,106 L-168,92 L-159,81 L-150,71 L-134,55 L-117,42 L-102,32 L-79,20 L-56,11 L-33,5 L-10,1 Z M10,98 L-7,101 L-28,108 L-45,117 L-57,126 L-67,135 L-77,146 L-87,161 L-95,177 L-101,193 L-106,213 L-108,229 L-108,259 L-105,279 L-99,300 L-91,318 L-83,332 L-73,345 L-66,353 L-58,360 L-45,370 L-26,380 L-5,387 L14,390 L37,390 L57,387 L78,380 L97,370 L109,361 L119,352 L126,345 L138,329 L147,313 L155,293 L160,274 L162,261 L163,249 L163,236 L161,217 L156,195 L149,177 L139,158 L129,145 L120,135 L109,125 L94,115 L78,107 L63,102 L49,99 L42,98 Z " fill="#000000" transform="translate(1652,347)"/>
<path d="M0,0 L12,0 L31,1 L57,5 L79,11 L95,17 L118,28 L137,40 L148,49 L158,58 L164,63 L171,71 L179,80 L191,97 L201,115 L209,133 L215,151 L220,174 L222,189 L222,240 L219,268 L217,277 L162,278 L-112,279 L-109,302 L-104,322 L-98,337 L-90,352 L-82,362 L-78,367 L-64,378 L-47,387 L-27,393 L-8,396 L28,396 L46,393 L64,387 L78,379 L90,368 L99,356 L108,337 L218,337 L217,347 L211,367 L203,385 L195,399 L187,410 L178,421 L160,439 L144,451 L124,463 L107,471 L87,478 L64,484 L45,487 L35,488 L7,489 L-26,487 L-50,483 L-73,477 L-92,470 L-111,461 L-127,451 L-139,442 L-153,430 L-162,421 L-171,410 L-181,396 L-190,381 L-198,365 L-206,345 L-213,321 L-218,296 L-221,268 L-221,221 L-218,194 L-212,165 L-202,135 L-193,115 L-182,96 L-172,82 L-161,69 L-151,58 L-143,51 L-126,38 L-113,30 L-94,20 L-70,11 L-46,5 L-27,2 Z M3,83 L-19,85 L-36,89 L-51,95 L-66,103 L-77,112 L-89,124 L-96,134 L-104,149 L-109,164 L-112,180 L-113,197 L116,197 L116,181 L112,160 L106,144 L97,128 L86,115 L75,105 L59,95 L44,89 L28,85 L8,83 Z " fill="#000000" transform="translate(2468,345)"/>
<path d="M0,0 L109,0 L109,697 L0,697 Z " fill="#000000" transform="translate(2046,126)"/>
<path d="M0,0 L4,0 L6,9 L10,14 L21,23 L31,32 L40,45 L45,57 L47,66 L48,98 L60,116 L67,131 L70,141 L71,157 L68,174 L64,186 L65,195 L71,208 L73,216 L74,229 L70,245 L62,261 L60,265 L61,271 L65,287 L65,305 L61,318 L54,330 L45,340 L42,343 L42,368 L39,380 L32,393 L27,399 L18,406 L15,405 L7,387 L-4,366 L-20,342 L-30,329 L-42,315 L-64,293 L-75,284 L-91,272 L-107,262 L-125,252 L-145,243 L-165,236 L-187,230 L-209,226 L-207,200 L-202,175 L-196,155 L-188,135 L-175,110 L-164,94 L-156,84 L-144,70 L-135,61 L-124,52 L-113,43 L-96,32 L-78,22 L-59,14 L-41,8 L-20,3 Z " fill="#743ABD" transform="translate(656,220)"/>
<path d="M0,0 L11,1 L33,7 L53,15 L74,26 L86,34 L98,43 L111,54 L131,74 L142,88 L152,102 L163,121 L173,142 L181,164 L185,179 L184,183 L162,193 L160,193 L158,198 L151,210 L142,220 L134,227 L112,234 L89,238 L78,249 L64,268 L55,283 L46,299 L36,322 L27,349 L22,372 L18,404 L0,404 Z " fill="#743ABD" transform="translate(449,502)"/>
<path d="M0,0 L17,0 L32,3 L45,8 L58,17 L70,29 L79,42 L85,46 L104,53 L123,63 L133,71 L144,85 L156,110 L164,116 L176,123 L178,126 L160,131 L140,137 L118,146 L97,156 L80,166 L64,177 L51,187 L36,200 L18,218 L9,229 L1,239 L0,239 Z " fill="#743ABD" transform="translate(449,40)"/>
</svg>
